<?xml version="1.0" encoding="utf-8"?>
<!-- Svg Vector Icons : http://www.onlinewebfonts.com/icon -->
<!DOCTYPE svg PUBLIC "-//W3C//DTD SVG 1.1//EN" "http://www.w3.org/Graphics/SVG/1.1/DTD/svg11.dtd">
<svg version="1.1" xmlns="http://www.w3.org/2000/svg" xmlns:xlink="http://www.w3.org/1999/xlink" x="0px" y="0px" viewBox="0 0 1000 1000" enable-background="new 0 0 1000 1000" xml:space="preserve">
<metadata> Svg Vector Icons : http://www.onlinewebfonts.com/icon </metadata>
<g><path d="M300.6,674.8c0,9.6,3.9,19.1,10.7,25.9c6.8,6.8,16.3,10.7,25.9,10.7c9.6,0,19.1-3.9,25.9-10.7c6.8-6.8,10.7-16.3,10.7-25.9c0-9.6-3.9-19.1-10.7-25.9c-6.8-6.8-16.3-10.7-25.9-10.7c-9.6,0-19.1,3.9-25.9,10.7C304.6,655.7,300.6,665.2,300.6,674.8L300.6,674.8z"/><path d="M606.7,674.8c0,9.6,3.9,19.1,10.7,25.9c6.8,6.8,16.3,10.7,25.9,10.7c9.6,0,19.1-3.9,25.9-10.7s10.7-16.3,10.7-25.9c0-9.6-3.9-19.1-10.7-25.9s-16.3-10.7-25.9-10.7c-9.6,0-19.1,3.9-25.9,10.7C610.5,655.7,606.7,665.2,606.7,674.8L606.7,674.8z"/><path d="M934.6,420.4c0,0-10.9-92.6-60.5-146.3c0,0,34.9-18.8-2.6-51c0,0-33.5-8.1-40.3-5.4c0,0-17.4-59.1-52.3-73.8c0,0-29.6-7.1-36.3,21.6c0,0-78.5-39.9-135.3-50c0,0-144.9-27.9-183.8-95.2c0,0-8.4-17.1-35.8-7c0,0-26.2,20.8-18.2,104.1c0,0,2.2,17.1-109.7-54.6c0,0-27.8-7.1-35.8,14.3c0,0-14.3,51,3.6,88.6c0,0-64.4,11.6-92.1,39.4c0,0-31.3,40.3,21.4,46.5c0,0-78.6,44.7-92.1,170.9c0,0-1.6,88.6,26.8,186.8c-6,16-8.5,33.7-6.5,51.5c5.6,51.3,45.1,92,96.5,99.1c16.1,49.2,43.7,94.3,81.4,132c63.3,63.3,147.5,98.2,237.2,98.2c89.5,0,173.7-34.9,237.2-98.2c38.5-38.5,66.5-84.7,82.5-135.3c49.5-6.4,88.9-44.1,97-93.5c3.9-23.9-0.2-47.6-10.5-68.1C923.6,542.9,938.9,478.9,934.6,420.4L934.6,420.4z M174.2,742.6c-39.7-9.5-69.5-42.7-74-83.8c-0.8-7.3-0.8-14.6,0.2-21.7c7.1,20.6,15.7,41.4,26.1,61.6c0,0,21.3,21.3,43.1,13.3c0.9,5.4,2,10.7,3.1,16L174.2,742.6L174.2,742.6z M499.9,974.5c-152.3,0-280-107-312.1-249.7l-2.6-24.2c2.5-2.9,5-6.5,7.3-10.7c0,0,2.8-99.4,61.9-158.4c0,0,52,14.4,118.2-22.3c0,0-27.8,34-52.9,52c0,0-14.3,34.9,17.8,38.5c0,0,99.3,18.8,198.7-46.5c0,0-5.4,33,42,23.3c0,0,38.5-0.9,100.2-48.4c0,0,13.5,22.3,63.9-5.4c0,0-1.2,44.2,38.9,112.8c0,0,17.5,28.5,17.5,78.6c0,0,4.7,3.7,11.5,7.1l-4.2,25.8C766.6,878.3,644.4,974.5,499.9,974.5L499.9,974.5z M901.3,660.5c-6.5,40.3-37.4,71.7-76.8,79.6c1.2-4.7,2.3-9.5,3.4-14.3c12.1,0.6,25.4-5,34.3-27.5c0,0,18-33.4,36.1-81.6C902.5,630.4,903.6,645.5,901.3,660.5L901.3,660.5z"/></g>
</svg>